<svg width="67" height="31" viewBox="0 0 67 31" fill="none" xmlns="http://www.w3.org/2000/svg">
<path d="M14.9756 0.140625H18.9336V21.2842C18.9336 24.1416 18.0723 26.377 16.3496 27.9902C14.6406 29.6035 12.3574 30.4102 9.5 30.4102C6.5332 30.4102 4.22266 29.6514 2.56836 28.1338C0.914063 26.6162 0.0869141 24.4902 0.0869141 21.7559H4.02441C4.02441 23.4648 4.48926 24.7979 5.41895 25.7549C6.3623 26.7119 7.72266 27.1904 9.5 27.1904C11.127 27.1904 12.4395 26.6777 13.4375 25.6523C14.4492 24.627 14.9619 23.1914 14.9756 21.3457V0.140625Z" fill="#2C4EA6"/>
<path d="M18.9434 20.3145C18.9434 18.4512 19.3067 16.7754 20.0333 15.2871C20.7716 13.7988 21.7911 12.6504 23.0919 11.8418C24.4044 11.0332 25.8985 10.6289 27.5743 10.6289C30.1641 10.6289 32.2559 11.5254 33.8497 13.3184C35.4552 15.1113 36.2579 17.4961 36.2579 20.4727V20.7012C36.2579 22.5527 35.9005 24.2168 35.1856 25.6934C34.4825 27.1582 33.4688 28.3008 32.1446 29.1211C30.8321 29.9414 29.3204 30.3516 27.6095 30.3516C25.0313 30.3516 22.9395 29.4551 21.3341 27.6621C19.7403 25.8691 18.9434 23.4961 18.9434 20.543V20.3145ZM22.213 20.7012C22.213 22.8105 22.6993 24.5039 23.672 25.7812C24.6563 27.0586 25.9688 27.6973 27.6095 27.6973C29.2618 27.6973 30.5743 27.0527 31.547 25.7637C32.5196 24.4629 33.0059 22.6465 33.0059 20.3145C33.0059 18.2285 32.5079 16.541 31.5118 15.252C30.5274 13.9512 29.2149 13.3008 27.5743 13.3008C25.9688 13.3008 24.6739 13.9395 23.6895 15.2168C22.7052 16.4941 22.213 18.3223 22.213 20.7012ZM52.2976 20.7012C52.2976 23.6074 51.6296 25.9453 50.2937 27.7148C48.9577 29.4727 47.1648 30.3516 44.9148 30.3516C42.5124 30.3516 40.655 29.502 39.3425 27.8027L39.1843 30H36.196V3H39.448V13.0723C40.7605 11.4434 42.571 10.6289 44.8796 10.6289C47.1882 10.6289 48.9987 11.502 50.3112 13.248C51.6355 14.9941 52.2976 17.3848 52.2976 20.4199V20.7012ZM49.0456 20.332C49.0456 18.1172 48.6179 16.4062 47.7624 15.1992C46.907 13.9922 45.6765 13.3887 44.071 13.3887C41.9265 13.3887 40.3855 14.3848 39.448 16.377V24.6035C40.4441 26.5957 41.9968 27.5918 44.1062 27.5918C45.6648 27.5918 46.8777 26.9883 47.7448 25.7812C48.612 24.5742 49.0456 22.7578 49.0456 20.332ZM63.3451 24.9551C63.3451 24.0762 63.0111 23.3965 62.3431 22.916C61.6869 22.4238 60.5326 22.002 58.8802 21.6504C57.2396 21.2988 55.933 20.877 54.9603 20.3848C53.9994 19.8926 53.2845 19.3066 52.8158 18.627C52.3587 17.9473 52.1302 17.1387 52.1302 16.2012C52.1302 14.6426 52.7865 13.3242 54.099 12.2461C55.4232 11.168 57.1107 10.6289 59.1615 10.6289C61.3177 10.6289 63.0638 11.1855 64.3998 12.2988C65.7474 13.4121 66.4212 14.8359 66.4212 16.5703H63.1517C63.1517 15.6797 62.7709 14.9121 62.0091 14.2676C61.2591 13.623 60.3099 13.3008 59.1615 13.3008C57.9779 13.3008 57.0521 13.5586 56.3841 14.0742C55.7162 14.5898 55.3822 15.2637 55.3822 16.0957C55.3822 16.8809 55.6927 17.4727 56.3138 17.8711C56.9349 18.2695 58.0541 18.6504 59.6712 19.0137C61.3002 19.377 62.6185 19.8105 63.6263 20.3145C64.6341 20.8184 65.3783 21.4277 65.8587 22.1426C66.3509 22.8457 66.597 23.707 66.597 24.7266C66.597 26.4258 65.9173 27.791 64.558 28.8223C63.1986 29.8418 61.4349 30.3516 59.267 30.3516C57.7435 30.3516 56.3959 30.082 55.224 29.543C54.0521 29.0039 53.1322 28.2539 52.4642 27.293C51.808 26.3203 51.4798 25.2715 51.4798 24.1465H54.7318C54.7904 25.2363 55.224 26.1035 56.0326 26.748C56.8529 27.3809 57.931 27.6973 59.267 27.6973C60.4974 27.6973 61.4818 27.4512 62.2201 26.959C62.9701 26.4551 63.3451 25.7871 63.3451 24.9551Z" fill="#242424"/>
</svg>
